{
	"asset":{
		"generator":"Khronos glTF Blender I/O v3.5.30",
		"version":"2.0"
	},
	"scene":0,
	"scenes":[
		{
			"name":"Scene",
			"nodes":[
				0
			]
		}
	],
	"nodes":[
		{
			"mesh":0,
			"name":"Realistic_White_Male_Low_Poly",
			"rotation":[
				0,
				0.9969305992126465,
				0,
				0.07829020917415619
			],
			"scale":[
				0.5908541679382324,
				0.5908541679382324,
				0.5908541679382324
			],
			"translation":[
				0.22049225866794586,
				0,
				1.6464178562164307
			]
		}
	],
	"materials":[
		{
			"doubleSided":true,
			"name":"CorpoZombie",
			"pbrMetallicRoughness":{
				"baseColorTexture":{
					"index":0
				},
				"metallicFactor":0,
				"roughnessFactor":0.5
			}
		}
	],
	"meshes":[
		{
			"name":"Realistic_White_Male_Low_Poly",
			"primitives":[
				{
					"attributes":{
						"POSITION":0,
						"TEXCOORD_0":1,
						"NORMAL":2
					},
					"indices":3,
					"material":0
				}
			]
		}
	],
	"textures":[
		{
			"sampler":0,
			"source":0
		}
	],
	"images":[
		{
			"bufferView":4,
			"mimeType":"image/jpeg",
			"name":"BodyZombie"
		}
	],
	"accessors":[
		{
			"bufferView":0,
			"componentType":5126,
			"count":7528,
			"max":[
				0.7843605875968933,
				3.0511860847473145,
				0.5521243810653687
			],
			"min":[
				-0.7122012376785278,
				-0.0005541162099689245,
				-0.31275197863578796
			],
			"type":"VEC3"
		},
		{
			"bufferView":1,
			"componentType":5126,
			"count":7528,
			"type":"VEC2"
		},
		{
			"bufferView":2,
			"componentType":5126,
			"count":7528,
			"type":"VEC3"
		},
		{
			"bufferView":3,
			"componentType":5123,
			"count":29652,
			"type":"SCALAR"
		}
	],
	"bufferViews":[
		{
			"buffer":0,
			"byteLength":90336,
			"byteOffset":0,
			"target":34962
		},
		{
			"buffer":0,
			"byteLength":60224,
			"byteOffset":90336,
			"target":34962
		},
		{
			"buffer":0,
			"byteLength":90336,
			"byteOffset":150560,
			"target":34962
		},
		{
			"buffer":0,
			"byteLength":59304,
			"byteOffset":240896,
			"target":34963
		},
		{
			"buffer":0,
			"byteLength":327382,
			"byteOffset":300200
		}
	],
	"samplers":[
		{
			"magFilter":9729,
			"minFilter":9987
		}
	],
	"buffers":[
		{
			"byteLength":627584,
			"uri":"data:application/octet-stream;base64,"
		}
	]
}
